<mxfile host="Electron" modified="2024-03-07T02:05:33.719Z" agent="Mozilla/5.0 (Macintosh; Intel Mac OS X 10_15_7) AppleWebKit/537.36 (KHTML, like Gecko) draw.io/23.1.5 Chrome/120.0.6099.109 Electron/28.1.0 Safari/537.36" etag="6t3x6dTVcm2FQzaXxFSx" version="23.1.5" type="device">
  <diagram name="第 1 页" id="ZlwJMcweyvlbrpoR3RY7">
    <mxGraphModel dx="1242" dy="907" grid="1" gridSize="10" guides="1" tooltips="1" connect="1" arrows="1" fold="1" page="1" pageScale="1" pageWidth="827" pageHeight="1169" math="0" shadow="0">
      <root>
        <mxCell id="0" />
        <mxCell id="1" parent="0" />
        <mxCell id="xyAtzAEBqi2KX3SZXKBX-1" value="&lt;font style=&quot;font-size: 15px;&quot;&gt;Fetch&lt;/font&gt;" style="rounded=0;whiteSpace=wrap;html=1;strokeWidth=3;fillColor=#d5e8d4;strokeColor=#000000;" vertex="1" parent="1">
          <mxGeometry x="100" y="370" width="120" height="60" as="geometry" />
        </mxCell>
        <mxCell id="xyAtzAEBqi2KX3SZXKBX-2" value="&lt;font style=&quot;font-size: 15px;&quot;&gt;Decode&lt;/font&gt;" style="rounded=0;whiteSpace=wrap;html=1;strokeWidth=3;fillColor=#ffe6cc;strokeColor=#000000;" vertex="1" parent="1">
          <mxGeometry x="220" y="370" width="120" height="60" as="geometry" />
        </mxCell>
        <mxCell id="xyAtzAEBqi2KX3SZXKBX-3" value="&lt;font style=&quot;font-size: 15px;&quot;&gt;Rename&lt;/font&gt;" style="rounded=0;whiteSpace=wrap;html=1;strokeWidth=3;fillColor=#fff2cc;strokeColor=#33001A;" vertex="1" parent="1">
          <mxGeometry x="340" y="370" width="120" height="60" as="geometry" />
        </mxCell>
        <mxCell id="xyAtzAEBqi2KX3SZXKBX-4" value="&lt;font style=&quot;font-size: 15px;&quot;&gt;Select and Wakeup&lt;/font&gt;" style="rounded=0;whiteSpace=wrap;html=1;strokeWidth=3;fillColor=#e1d5e7;strokeColor=#000000;" vertex="1" parent="1">
          <mxGeometry x="450" y="370" width="120" height="60" as="geometry" />
        </mxCell>
        <mxCell id="xyAtzAEBqi2KX3SZXKBX-5" value="&lt;font style=&quot;font-size: 15px;&quot;&gt;Execute&lt;/font&gt;" style="rounded=0;whiteSpace=wrap;html=1;strokeWidth=3;fillColor=#dae8fc;strokeColor=#000000;" vertex="1" parent="1">
          <mxGeometry x="570" y="370" width="120" height="60" as="geometry" />
        </mxCell>
        <mxCell id="xyAtzAEBqi2KX3SZXKBX-6" value="&lt;font style=&quot;font-size: 15px;&quot;&gt;Commit&lt;/font&gt;" style="rounded=0;whiteSpace=wrap;html=1;strokeWidth=3;fillColor=#ffcc99;strokeColor=#36393d;" vertex="1" parent="1">
          <mxGeometry x="690" y="370" width="120" height="60" as="geometry" />
        </mxCell>
        <mxCell id="xyAtzAEBqi2KX3SZXKBX-7" value="" style="endArrow=classic;html=1;rounded=0;entryX=0.5;entryY=0;entryDx=0;entryDy=0;strokeWidth=3;strokeColor=#E22C2C;" edge="1" parent="1" target="xyAtzAEBqi2KX3SZXKBX-3">
          <mxGeometry width="50" height="50" relative="1" as="geometry">
            <mxPoint x="810" y="400" as="sourcePoint" />
            <mxPoint x="390" y="350" as="targetPoint" />
            <Array as="points">
              <mxPoint x="860" y="400" />
              <mxPoint x="860" y="330" />
              <mxPoint x="400" y="330" />
            </Array>
          </mxGeometry>
        </mxCell>
        <mxCell id="xyAtzAEBqi2KX3SZXKBX-8" value="" style="endArrow=classic;html=1;rounded=0;exitX=0.5;exitY=1;exitDx=0;exitDy=0;entryX=0.5;entryY=1;entryDx=0;entryDy=0;strokeColor=#E22C2C;strokeWidth=3;" edge="1" parent="1" source="xyAtzAEBqi2KX3SZXKBX-5" target="xyAtzAEBqi2KX3SZXKBX-4">
          <mxGeometry width="50" height="50" relative="1" as="geometry">
            <mxPoint x="750" y="500" as="sourcePoint" />
            <mxPoint x="490" y="500" as="targetPoint" />
            <Array as="points">
              <mxPoint x="630" y="490" />
              <mxPoint x="510" y="490" />
            </Array>
          </mxGeometry>
        </mxCell>
        <mxCell id="xyAtzAEBqi2KX3SZXKBX-9" value="" style="endArrow=classic;html=1;rounded=0;entryX=0.45;entryY=1.033;entryDx=0;entryDy=0;entryPerimeter=0;strokeColor=#E22C2C;strokeWidth=3;" edge="1" parent="1" target="xyAtzAEBqi2KX3SZXKBX-3">
          <mxGeometry width="50" height="50" relative="1" as="geometry">
            <mxPoint x="510" y="490" as="sourcePoint" />
            <mxPoint x="360" y="490" as="targetPoint" />
            <Array as="points">
              <mxPoint x="394" y="490" />
            </Array>
          </mxGeometry>
        </mxCell>
      </root>
    </mxGraphModel>
  </diagram>
</mxfile>
